<mxfile host="app.diagrams.net" agent="Mozilla/5.0 (Windows NT 10.0; Win64; x64) AppleWebKit/537.36 (KHTML, like Gecko) Chrome/130.0.0.0 Safari/537.36" version="24.8.3">
  <diagram name="Page-1" id="y-ZFuvWTaDtMXv03vSU7">
    <mxGraphModel dx="1050" dy="530" grid="1" gridSize="10" guides="1" tooltips="1" connect="1" arrows="1" fold="1" page="1" pageScale="1" pageWidth="850" pageHeight="1100" math="0" shadow="0">
      <root>
        <mxCell id="0" />
        <mxCell id="1" parent="0" />
        <mxCell id="XjijE6OIwFC7-dDBtSXK-2" value="Design a URL Shortner Service&amp;nbsp;" style="text;html=1;align=center;verticalAlign=middle;whiteSpace=wrap;rounded=0;fontStyle=1" vertex="1" parent="1">
          <mxGeometry x="60" y="40" width="240" height="30" as="geometry" />
        </mxCell>
        <mxCell id="XjijE6OIwFC7-dDBtSXK-3" value="&lt;b&gt;Need to ask thos questions&lt;/b&gt;&lt;div&gt;1) Confirm your understading of the system. Ans : okay&lt;/div&gt;&lt;div&gt;2) How url short need to be? Ans : as short as possible&lt;/div&gt;&lt;div&gt;3) How long should we reserve a url? Ans : 10 years&lt;/div&gt;&lt;div&gt;4) How many url per day?&amp;nbsp; Ans : 10 milion&lt;/div&gt;&lt;div&gt;5) Do we need login? Ans : yes/no&lt;/div&gt;&lt;div&gt;6) Analytics? Ans : yes/No&lt;/div&gt;" style="text;html=1;align=left;verticalAlign=top;whiteSpace=wrap;rounded=0;" vertex="1" parent="1">
          <mxGeometry x="80" y="80" width="420" height="120" as="geometry" />
        </mxCell>
      </root>
    </mxGraphModel>
  </diagram>
</mxfile>
